<svg width="16" height="18" viewBox="0 0 16 18" fill="none" xmlns="http://www.w3.org/2000/svg">
<path d="M13.9112 18H1.44875C1.16209 17.9995 0.881988 17.9112 0.64379 17.7464C0.405592 17.5815 0.219966 17.3475 0.11033 17.0737C0.000693874 16.7999 -0.0280408 16.4987 0.0277504 16.2081C0.0835416 15.9174 0.22136 15.6504 0.423818 15.4406L6.65506 9L0.423818 2.55937C0.22136 2.34961 0.0835416 2.08256 0.0277504 1.79193C-0.0280408 1.5013 0.000693874 1.20009 0.11033 0.926321C0.219966 0.652548 0.405592 0.418468 0.64379 0.253611C0.881988 0.0887549 1.16209 0.000506987 1.44875 0H13.9112C14.1979 0.000506987 14.478 0.0887549 14.7162 0.253611C14.9544 0.418468 15.14 0.652548 15.2497 0.926321C15.3593 1.20009 15.388 1.5013 15.3323 1.79193C15.2765 2.08256 15.1386 2.34961 14.9362 2.55937L8.70494 9L14.9362 15.4406C15.1386 15.6504 15.2765 15.9174 15.3323 16.2081C15.388 16.4987 15.3593 16.7999 15.2497 17.0737C15.14 17.3475 14.9544 17.5815 14.7162 17.7464C14.478 17.9112 14.1979 17.9995 13.9112 18ZM1.44875 16.5H13.9112L7.68 10.0594L1.44875 16.5ZM1.44875 1.5L7.68 7.94062L13.9112 1.5H1.44875Z" fill="white"/>
</svg>
